<svg xmlns="http://www.w3.org/2000/svg">
	<symbol id="github" viewBox="0 0 496 512">
		<path fill="currentColor" d="M165.9 397.4c0 2-2.3 3.6-5.2 3.6-3.3.3-5.6-1.3-5.6-3.6 0-2 2.3-3.6 5.2-3.6 3-.3 5.6 1.3 5.6 3.6zm-31.1-4.5c-.7 2 1.3 4.3 4.3 4.9 2.6 1 5.6 0 6.2-2s-1.3-4.3-4.3-5.2c-2.6-.7-5.5.3-6.2 2.3zm44.2-1.7c-2.9.7-4.9 2.6-4.6 4.9.3 2 2.9 3.3 5.9 2.6 2.9-.7 4.9-2.6 4.6-4.6-.3-1.9-3-3.2-5.9-2.9zM244.8 8C106.1 8 0 113.3 0 252c0 110.9 69.8 205.8 169.5 239.2 12.8 2.3 17.3-5.6 17.3-12.1 0-6.2-.3-40.4-.3-61.4 0 0-70 15-84.7-29.8 0 0-11.4-29.1-27.8-36.6 0 0-22.9-15.7 1.6-15.4 0 0 24.9 2 38.6 25.8 21.9 38.6 58.6 27.5 72.9 20.9 2.3-16 8.8-27.1 16-33.7-55.9-6.2-112.3-14.3-112.3-110.5 0-27.5 7.6-41.3 23.6-58.9-2.6-6.5-11.1-33.3 2.6-67.9 20.9-6.5 69 27 69 27 20-5.6 41.5-8.5 62.8-8.5s42.8 2.9 62.8 8.5c0 0 48.1-33.6 69-27 13.7 34.7 5.2 61.4 2.6 67.9 16 17.7 25.8 31.5 25.8 58.9 0 96.5-58.9 104.2-114.8 110.5 9.2 7.9 17 22.9 17 46.4 0 33.7-.3 75.4-.3 83.6 0 6.5 4.6 14.4 17.3 12.1C428.2 457.8 496 362.9 496 252 496 113.3 383.5 8 244.8 8zM97.2 352.9c-1.3 1-1 3.3.7 5.2 1.6 1.6 3.9 2.3 5.2 1 1.3-1 1-3.3-.7-5.2-1.6-1.6-3.9-2.3-5.2-1zm-10.8-8.1c-.7 1.3.3 2.9 2.3 3.9 1.6 1 3.6.7 4.3-.7.7-1.3-.3-2.9-2.3-3.9-2-.6-3.6-.3-4.3.7zm32.4 35.6c-1.6 1.3-1 4.3 1.3 6.2 2.3 2.3 5.2 2.6 6.5 1 1.3-1.3.7-4.3-1.3-6.2-2.2-2.3-5.2-2.6-6.5-1zm-11.4-14.7c-1.6 1-1.6 3.6 0 5.9 1.6 2.3 4.3 3.3 5.6 2.3 1.6-1.3 1.6-3.9 0-6.2-1.4-2.3-4-3.3-5.6-2z"/>
	</symbol>
	<symbol id="twitter" viewBox="0 0 512 512">
		<path fill="currentColor" d="M459.37 151.716c.325 4.548.325 9.097.325 13.645 0 138.72-105.583 298.558-298.558 298.558-59.452 0-114.68-17.219-161.137-47.106 8.447.974 16.568 1.299 25.34 1.299 49.055 0 94.213-16.568 130.274-44.832-46.132-.975-84.792-31.188-98.112-72.772 6.498.974 12.995 1.624 19.818 1.624 9.421 0 18.843-1.3 27.614-3.573-48.081-9.747-84.143-51.98-84.143-102.985v-1.299c13.969 7.797 30.214 12.67 47.431 13.319-28.264-18.843-46.781-51.005-46.781-87.391 0-19.492 5.197-37.36 14.294-52.954 51.655 63.675 129.3 105.258 216.365 109.807-1.624-7.797-2.599-15.918-2.599-24.04 0-57.828 46.782-104.934 104.934-104.934 30.213 0 57.502 12.67 76.67 33.137 23.715-4.548 46.456-13.32 66.599-25.34-7.798 24.366-24.366 44.833-46.132 57.827 21.117-2.273 41.584-8.122 60.426-16.243-14.292 20.791-32.161 39.308-52.628 54.253z"/>
	</symbol>
	<symbol id="linkedin" viewBox="0 0 448 512">
		<path fill="currentColor" d="M416 32H31.9C14.3 32 0 46.5 0 64.3v383.4C0 465.5 14.3 480 31.9 480H416c17.6 0 32-14.5 32-32.3V64.3c0-17.8-14.4-32.3-32-32.3zM135.4 416H69V202.2h66.5V416zm-33.2-243c-21.3 0-38.5-17.3-38.5-38.5S80.9 96 102.2 96c21.2 0 38.5 17.3 38.5 38.5 0 21.3-17.2 38.5-38.5 38.5zm282.1 243h-66.4V312c0-24.8-.5-56.7-34.5-56.7-34.6 0-39.9 27-39.9 54.9V416h-66.4V202.2h63.7v29.2h.9c8.9-16.8 30.6-34.5 62.9-34.5 67.2 0 79.7 44.3 79.7 101.9V416z"/>
	</symbol>
	<symbol id="instagram" viewBox="0 0 448 512">
		<path fill="currentColor" d="M224.1 141c-63.6 0-114.9 51.3-114.9 114.9s51.3 114.9 114.9 114.9S339 319.5 339 255.9 287.7 141 224.1 141zm0 189.6c-41.1 0-74.7-33.5-74.7-74.7s33.5-74.7 74.7-74.7 74.7 33.5 74.7 74.7-33.6 74.7-74.7 74.7zm146.4-194.3c0 14.9-12 26.8-26.8 26.8-14.9 0-26.8-12-26.8-26.8s12-26.8 26.8-26.8 26.8 12 26.8 26.8zm76.1 27.2c-1.7-35.9-9.9-67.7-36.2-93.9-26.2-26.2-58-34.4-93.9-36.2-37-2.1-147.9-2.1-184.9 0-35.8 1.7-67.6 9.9-93.9 36.1s-34.4 58-36.2 93.9c-2.1 37-2.1 147.9 0 184.9 1.7 35.9 9.9 67.7 36.2 93.9s58 34.4 93.9 36.2c37 2.1 147.9 2.1 184.9 0 35.9-1.7 67.7-9.9 93.9-36.2 26.2-26.2 34.4-58 36.2-93.9 2.1-37 2.1-147.8 0-184.8zM398.8 388c-7.8 19.6-22.9 34.7-42.6 42.6-29.5 11.7-99.5 9-132.1 9s-102.7 2.6-132.1-9c-19.6-7.8-34.7-22.9-42.6-42.6-11.7-29.5-9-99.5-9-132.1s-2.6-102.7 9-132.1c7.8-19.6 22.9-34.7 42.6-42.6 29.5-11.7 99.5-9 132.1-9s102.7-2.6 132.1 9c19.6 7.8 34.7 22.9 42.6 42.6 11.7 29.5 9 99.5 9 132.1s2.7 102.7-9 132.1z"/>
	</symbol>
	<symbol id="mastodon" viewBox="0 0 24 24">
		<path fill="currentColor" d="M21.33 8.57c0-4.34-2.85-5.61-2.85-5.61-1.43-.66-3.89-.94-6.45-.96h-.06c-2.56.02-5.02.3-6.45.96 0 0-2.84 1.27-2.84 5.6 0 1-.02 2.19 0 3.45.11 4.24.79 8.42 4.71 9.46 1.8.48 3.36.58 4.61.51a9.15 9.15 0 0 0 3.54-.8l-.07-1.66s-1.62.52-3.44.45c-1.8-.06-3.71-.19-4-2.4a4.52 4.52 0 0 1-.04-.63s1.77.44 4.01.54c1.37.06 2.66-.08 3.97-.24 2.5-.3 4.68-1.84 4.96-3.25.43-2.22.4-5.42.4-5.42zm-3.36 5.59H15.9v-5.1c0-1.08-.45-1.62-1.35-1.62-1 0-1.5.64-1.5 1.92v2.8h-2.07v-2.8c0-1.28-.5-1.92-1.5-1.92-.91 0-1.36.54-1.36 1.62v5.1H6.03V8.9c0-1.07.27-1.92.82-2.55.57-.64 1.3-.96 2.23-.96 1.06 0 1.87.4 2.4 1.23l.52.87.52-.87a2.68 2.68 0 0 1 2.4-1.23c.92 0 1.67.32 2.23.96.55.63.82 1.48.82 2.55v5.26z"/>
	</symbol>
	<symbol id="cv" viewBox="0 0 45 45">
		<path fill="currentColor" d="M19.56 25.39c-.07.17-.16.33-.27.45-.1.13-.24.23-.4.3-.15.08-.34.11-.56.11a1.4 1.4 0 0 1-.78-.2 1.5 1.5 0 0 1-.5-.54 2.6 2.6 0 0 1-.27-.76 4.25 4.25 0 0 1 0-1.7c.06-.28.15-.54.27-.76a1.39 1.39 0 0 1 1.28-.74 1.28 1.28 0 0 1 1.08.51c.1.14.17.27.21.42l.09.33h2.57a3.77 3.77 0 0 0-1.14-2.5 3.96 3.96 0 0 0-2.74-.9c-.66 0-1.26.1-1.8.32a3.93 3.93 0 0 0-2.24 2.33c-.2.55-.3 1.17-.3 1.84 0 .63.1 1.22.28 1.77a4 4 0 0 0 4.06 2.72c.62 0 1.18-.1 1.67-.32a3.57 3.57 0 0 0 2.24-3.25h-2.6c-.03.2-.08.4-.15.57zM26.62 24.81h-.02l-1.41-5.19h-2.66l2.55 8.56h2.96l2.67-8.56H28z"/>
		<path fill="currentColor" d="M33.43 0H5.18v45.06h34.7V6.26L33.43 0zm3.45 42.06H8.18V3h23.7v4.76h5v34.3z"/>
	</symbol>
	<symbol id="email" viewBox="0 0 512 512">
		<path fill="currentColor" d="M511 112a71 71 0 0 0-70-57H71a71 71 0 0 0-71 71v260a71 71 0 0 0 26 55c12 10 28 16 45 16h370a71 71 0 0 0 65-43c4-9 6-18 6-28V126l-1-14zM47 102c6-7 14-11 24-11h370a34 34 0 0 1 28 14L275 274c-6 5-12 7-19 7s-13-2-19-7L43 105l4-3zM36 386V143l141 122L36 387v-1zm405 35H71c-6 0-12-2-17-5l148-129 14 12a62 62 0 0 0 80 0l14-12 148 129c-5 3-11 5-17 5zm35-35v1L335 265l141-122v243z"/>
	</symbol>
</svg>
